<svg xmlns="http://www.w3.org/2000/svg" xmlns:xlink="http://www.w3.org/1999/xlink" id="Layer_1" x="0px" y="0px" viewBox="0 0 1735 447" style="enable-background:new 0 0 1735 447;" xml:space="preserve"><style type="text/css">	.st0{fill:#FFFFFF;}</style><g>	<path d="M140.07,425.57c-0.19,1.55-0.4,3.29-0.65,5.32c-39.24,0-78.32,0-117.66,0c0-138.26,0-276.34,0-414.66  c39.27,0,78.35,0,117.91,0c0,31.96,0,63.65,0,95.35c77.54-16.08,141.52,4.58,183.96,72.31c35.11,56.05,34.64,116.01-1.47,171.64  C279.38,421.44,216.28,441.25,140.07,425.57z M229.5,269.38c-29.58,0-59.17,0-88.76,0c0.47,24.53,21.55,44.5,45.83,43.87  C209.65,312.66,230.53,291.2,229.5,269.38z"></path>	<path d="M1511.8,353.21c-17.36,17.99-34.72,35.98-52.4,54.3c-2.43-2.25-3.75-3.39-4.98-4.61c-14.12-13.92-28.22-27.86-42.33-41.79  c-4.56-4.5-8.77-3.67-9.5,2.59c-0.74,6.33-0.91,13.17,0.73,19.23c3.89,14.45,4.24,28.43-1.99,42.18c-1.39,3.06-3.41,6.02-5.77,8.41  c-7.93,8.04-18.48,7.64-25.72-1.17c-9.1-11.09-11.21-24.26-9.27-37.98c2.06-14.53,5.41-28.88,7.32-43.43  c1.84-14.08,0.67-28.04-8.98-39.51c-4.15-4.93-9.35-9.13-14.6-12.94c-4.86-3.53-8.57-2.57-12.29,2.31  c-2.38,3.11-4.2,6.64-6.49,9.82c-4.29,5.95-9.41,6.72-14.25,1.2c-3.45-3.92-6.33-8.85-7.88-13.82c-2.66-8.55-4.49-17.42-5.95-26.27  c-3.07-18.63-10.16-34.84-24.25-48.12c-19.07-17.98-37.45-36.7-56.03-55.19c-5.78-5.75-11.25-11.81-17.81-18.74  c1.88-1.41,3.88-2.59,5.49-4.17c37.1-36.59,74.13-73.24,111.31-109.75c1.47-1.45,4.26-2.18,6.44-2.19  c72.8-0.11,145.6-0.09,218.41-0.09c17.87,0,35.75-0.06,53.62,0.08c1.89,0.01,4.3,0.66,5.57,1.91  c38.44,37.8,76.77,75.7,115.12,113.6c0.34,0.34,0.64,0.72,1.22,1.36c-5.8,6.13-11.44,12.43-17.43,18.36  c-44.94,44.51-89.88,89.02-135.07,133.27c-4.21,4.12-4.94,7.99-3.79,13.04c2.31,10.19,5.08,20.32,6.73,30.62  c1.21,7.5,1.89,15.33,1.13,22.84c-1.71,16.73-20.08,21.98-31.45,20.13C1518.61,385.78,1511.75,373.26,1511.8,353.21z   M1457.65,353.52c0.44,0,0.88,0,1.32,0c19.11-59.94,38.21-119.88,57.4-180.07c-39.08,0-77.33,0-116.13,0  C1419.46,233.74,1438.55,293.63,1457.65,353.52z M1516.07,295.67c11.34-2.24,16.27,1.69,15.99,12.55  c-0.15,5.8-1.23,11.63-2.35,17.35c-2.42,12.46-6.25,24.68-5.43,37.62c0.56,8.77,5.61,13.91,14.32,14.13  c2.13,0.05,4.26,0.08,6.39-0.02c6.07-0.29,10.76-3.22,11.55-9.27c0.83-6.47,0.52-13.29-0.52-19.75c-2.29-14.12-6.54-28-7.86-42.18  c-2.34-25.04,5.54-46.7,24.23-64.48c22.06-20.99,43.42-42.71,65.07-64.12c1.16-1.15,2.23-2.39,4.02-4.31  c-28.48,0-55.66,0.05-82.85-0.07c-3.2-0.01-3.69,1.85-4.42,4.1c-10.45,32.3-20.94,64.58-31.39,96.88  C1520.58,281.02,1518.47,287.98,1516.07,295.67z M1274.8,173.18c42.27,41.77,83.48,82.5,124.99,123.52  c0.19-0.9,0.29-1.08,0.25-1.21c-12.65-39.74-25.28-79.49-38.11-119.17c-0.45-1.38-2.9-2.95-4.46-3  c-9.83-0.27-19.67-0.14-29.51-0.14C1310.78,173.18,1293.59,173.18,1274.8,173.18z M1507.02,135.81  c-16.39-21.85-32.36-43.12-48.72-64.92c-16.39,21.85-32.33,43.1-48.7,64.92C1442.39,135.81,1474.35,135.81,1507.02,135.81z   M1646.49,135.95c-16.35-16.83-33.16-34.13-50.27-51.75c-8.24,17.28-16.34,34.27-24.67,51.75  C1597.51,135.95,1622.66,135.95,1646.49,135.95z M1345.04,135.82c-8.4-17.58-16.48-34.5-24.74-51.78  c-17.18,17.66-34.01,34.96-50.37,51.78C1293.84,135.82,1319.07,135.82,1345.04,135.82z M1561.22,71.14c-19.07,0-37.15,0-56.23,0  c11.66,15.56,22.84,30.47,34.38,45.87C1546.81,101.4,1553.87,86.56,1561.22,71.14z M1377.25,116.99  c11.61-15.48,22.79-30.4,34.26-45.69c-19.1,0-37.26,0-56.05,0C1362.81,86.72,1369.88,101.53,1377.25,116.99z"></path>	<path d="M810.34,287.92C806.68,346.41,753.59,427,654.89,430.6c-92.12,3.36-172.14-71.82-166.98-171.14  c4.65-89.41,80.6-157.9,169.9-152.84c103.73,5.87,156.84,94.72,153.88,162.05c-68.6,0-137.22,0-206.09,0  c-1.67,6.51,0.66,12.11,2.95,17.27c7.41,16.64,20.55,26.27,38.74,27.32c17.5,1,31.35-6.43,40.82-21.43  c1.37-2.17,2.42-4.25,5.84-4.24c38.03,0.14,76.06,0.09,114.09,0.11C808.69,287.69,809.34,287.82,810.34,287.92z"></path>	<path d="M823.85,106.62c39.23,0,77.85,0,117.06,0c0,2.06,0,3.81,0,5.56c-0.01,52.4-0.15,104.8,0.05,157.2  c0.07,19.12,9.85,32.58,27,40.2c17.2,7.63,33.39,4.46,47.49-7.65c10.93-9.39,15.29-21.83,15.25-36.18  c-0.14-51.09,0.02-102.18-0.17-153.27c-0.02-4.97,1.2-6.32,6.24-6.29c34.92,0.23,69.85,0.12,104.77,0.12c1.77,0,3.53,0,5.95,0  c0,2.6,0,4.67,0,6.74c0,52.73-0.12,105.45,0.05,158.18c0.09,26.9-6.48,52.07-19.58,75.35c-24.38,43.3-61.02,71.62-109.83,80.61  c-68.45,12.6-124.3-10.15-165.82-66.31c-15.11-20.45-23.38-43.89-27.5-68.82c-0.8-4.82-1.13-9.76-1.14-14.65  c-0.08-55.35-0.05-110.69-0.04-166.04C823.65,109.92,823.77,108.47,823.85,106.62z"></path>	<path d="M476.25,16.46c0,138.14,0,275.91,0,414.12c-2,0.1-3.75,0.26-5.5,0.26c-35.58,0.01-71.16-0.07-106.73,0.11  c-4.37,0.02-5.46-1.16-5.46-5.48c0.12-134.59,0.11-269.17,0.01-403.76c0-4.16,0.87-5.63,5.38-5.6c35.74,0.19,71.48,0.1,107.22,0.12  C472.79,16.23,474.39,16.37,476.25,16.46z"></path>	<path class="st0" d="M229.5,269.38c1.03,21.82-19.85,43.28-42.93,43.88c-24.28,0.63-45.36-19.34-45.83-43.87  C170.33,269.38,199.91,269.38,229.5,269.38z"></path></g></svg>